<?xml version="1.0" encoding="utf-8"?>
<!-- Generator: Adobe Illustrator 27.5.0, SVG Export Plug-In . SVG Version: 6.00 Build 0)  -->
<svg version="1.1" xmlns="http://www.w3.org/2000/svg" xmlns:xlink="http://www.w3.org/1999/xlink" x="0px" y="0px"
	 viewBox="0 0 625.97 649.33" style="enable-background:new 0 0 625.97 649.33;" xml:space="preserve">
<style type="text/css">
	.st0{fill:#970B0E;stroke:#000000;stroke-miterlimit:10;}
	.st1{fill:#E6ECF8;stroke:#000000;stroke-miterlimit:10;}
	.st2{fill:#960C0C;stroke:#000000;stroke-miterlimit:10;}
	.st3{fill:#012F4B;stroke:#000000;stroke-miterlimit:10;}
	.st4{fill:#012F4A;stroke:#000000;stroke-miterlimit:10;}
</style>
<g id="Capa_6">
	<g>
		<path class="st0" d="M475.5,214.64c31.66-0.17,63.33-0.35,94.99-0.52c0.62-0.11,1.5-0.32,2.43-0.82
			c6.14-3.31,5.65-14.17,5.59-15.14c-0.2-3.52-2.6-8.05-7.41-17.11c-2.52-4.76-5.75-10.37-10.92-16.12
			c-2.1-2.33-2.97-2.96-3.44-3.28c-5.51-3.75-12.19-2.54-17.34-1.6c-7.57,1.37-14.31,4.74-19.27,7.22l0,0
			c-2.11,1.52-5.34,3.3-8.99,2.86c-4.58-0.55-6.45-4.2-13.49-12.18c-1.93-2.19-8.2-9.31-15.85-16.23
			c-7.2-6.52-10.03-7.81-10.77-11.92c-0.28-1.57-0.13-2.82,3.21-12.49c3.54-10.26,3.93-10.49,4.81-13.86
			c1.84-7.04,3.21-12.25,1.37-17.19c-0.99-2.68-2.85-5.08-16.04-12.37c-14.11-7.8-21.27-11.68-26.68-10.72
			c-7.66,1.37-13.21,7.59-16.4,11.18c-6.56,7.37-8.41,14.83-15.58,16.27c-1.26,0.25-2.27,0.24-4.35,0.06
			c-11.71-1.03-21.53-4.26-26.21-5.79c-19.79-6.44-20.77-6.1-22.61-8.56c-3.1-4.13-1.3-6.37-4.12-19.63
			c-2.27-10.67-3.41-16-6.72-19.33c-5.04-5.06-12.78-5.05-28.26-5.04c-13.81,0.01-20.71,0.01-24.44,3.36
			c-4.03,3.61-6.05,12.29-10.08,29.64c-1.42,6.12-1.46,7.17-2.75,9.17c-2.92,4.54-7.13,6.03-24.75,11
			c-17.55,4.95-20.03,5.36-23.81,4.34c-5.5-1.48-9.72-4.87-14.38-8.62c-5.11-4.11-5.3-5.55-11.31-10.69
			c-6.56-5.61-9.84-8.41-13.44-9.17c-6.73-1.4-12.66,2.54-23.22,9.78c-10.5,7.19-15.75,10.79-17.54,14.55
			c-7.71,16.16,14.42,32.35,6.84,49.16c-1.09,2.42-1.24,1.39-16.5,15.81c-17.43,16.47-16.63,17.23-19.94,18.33
			c-15.6,5.19-26.59-14.01-42.39-8.71c-7.68,2.58-11.9,9.41-16.27,16.5c-3.94,6.38-12.2,19.63-7.56,30.25
			c3,6.88,11.86,13.69,20.78,20.55c1.38,1.06,4.87,3.69,5.7,7.96c0.58,2.98-0.4,5.48-0.81,6.55c-2.45,6.42-4.44,14.3-8.44,30.05
			c-3.17,12.51-2.16,16.08-6.23,19.22c-3.19,2.46-5.87,1.85-13.44,2.67c-12.6,1.37-21.47,2.34-26.28,7.64
			c-3.29,3.63-3.11,11.84-2.61,28.11c0.39,12.56,0.63,18.9,3.21,21.88c6.65,7.69,22.45,8.43,27.5,8.67
			c5.28,0.25,11.26-0.15,14.36,3.82c0.74,0.94,1.03,1.82,1.83,5.5c1.59,7.3,2.38,12.98,2.77,15.38c0.73,4.57,1.67,7.72,3.54,14.02
			c3.96,13.28,6.99,17.26,4.76,21.77c-1.03,2.09-2.42,2.73-5.8,5.04c-4.92,3.37-14.84,10.16-18.71,16.8
			c-5.83,9.98-0.19,23.33,2.22,29.03c2.78,6.58,7.68,18.19,17.87,21.08c7.41,2.1,16.33-0.76,32.54-5.96
			c4.23-1.36,5.28-1.88,7.56-1.83c7.63,0.17,10.6,6.39,22.92,18.56c11.5,11.38,17.48,14.42,17.6,21.71c0.04,2.32-0.54,3.77-1.56,6.7
			c-6.33,18.18-9.49,27.27-7.49,34.14c1.78,6.09,7.96,9.71,20.32,16.96c11.8,6.91,17.69,10.37,24.29,8.71
			c3.6-0.91,4.72-2.64,19.71-18.33c9.7-10.16,10.67-10.94,12.68-11.61c7.67-2.56,11.16,2.97,28.11,7.26
			c14.5,3.67,18.62,1.31,23.22,6.19c2.13,2.26,2.36,3.94,6,19.47c4.23,18.05,4.7,19.11,5.91,20.52c5.44,6.36,14.49,6.68,29.96,7.22
			c13.21,0.46,19.82,0.69,24.14-3.21c3.56-3.21,5.22-11.66,8.4-28.42c2.21-11.66,2.06-13.27,4.2-15.66
			c5.19-5.79,11.62-2.46,26.97-5.89c17.04-3.8,19.58-10.24,26.43-7.49c2.52,1.01,3.06,2.24,16.88,19.86
			c5.24,6.69,5.68,7.17,6.82,7.83c8.75,5.07,20.95-1.36,31.91-7.14c10.62-5.6,20.07-10.59,21.39-19.33
			c0.33-2.19-0.02-3.47-2.6-11.61c-7.56-23.93-8.45-25.36-7.79-28.72c0.93-4.77,3.26-4.75,18.03-19.25
			c15.05-14.78,14.95-17.08,19.86-18.03c5.49-1.06,13.18,1.66,28.57,7.1c6.36,2.25,6.72,2.68,8.71,2.67
			c11.26-0.06,19.34-14.04,24.29-22.61c4.68-8.1,8.31-14.61,6.18-22.05c-1.31-4.57-4.28-7.67-6.33-9.42
			c-31.74,0.1-63.49,0.2-95.23,0.29"/>
		<path class="st1" d="M505.45,364.51c-2.85,19.22-10.65,53.06-35.24,85.99c-38.21,51.17-99.95,77.66-155.33,76.58
			c-93.54-1.82-199.56-81.47-199.56-199.56c0-115.86,101.78-198.69,199.56-199.56c61.59-0.55,123.46,31.41,160.32,85.31
			C520.81,279.98,508.12,351.05,505.45,364.51z"/>
		<path class="st2" d="M498.34,289.81c0.72,0,53.18,0,58.13,0c0.07,0,2.98,0,3.06,0c0.81,0,1.63,0,2.44,0
			c13.55,0,25.36,4.12,25.36,4.12c8.52,2.97,15.28,7.21,20.32,11.15c0.26,0.38,0.65,0.96,1.07,1.68c3.24,5.51,3.97,11.11,4.12,17.11
			c0.3,11.31,0.45,16.97-1.99,21.39c-3.9,7.1-11,9.9-19.55,13.14c-14.95,5.66-27.71,6.11-29.33,6.11c-47.21,0-94.41,0-141.62,0
			c0,0,5.7,0-2.75,0c-1.48,0-1.56,0-1.6,0c-3.12,0.04-5.63,3.69-6.11,4.35c-4.57,6.27-22.91,23.3-34.82,30.73
			c-3.62,2.26-9.37,5.32-17.42,7.54c-15.02,0.09-47.78,0.3-49.98,0.35c-1.8,0.04-2.72,0.06-2.72,0.06c0,0-0.57,0.01-1.84,0.04
			c-11.02,0.25-25.28-9.47-25.28-9.47c-16.42-11.2-29.77-29.79-32.46-33.61c1,0,46.93-0.21,46.99-0.21c0.01,0,2.68-0.01,2.74-0.01
			c0,0,2.45-0.01,2.52-0.01c1.5,0,8.39,6.35,26.28,26.12c0.44,0,16.67,0.06,16.73,0.06c0.05,0,2.39,0.01,2.44,0.01
			c0.02,0,1.66,0.01,1.68,0.01c0.77-0.68,51.82-45.67,51.84-45.69c0,0,1.3-1.15,1.3-1.15c0.81-0.81,0.94-0.83,0.94-0.83
			c2.93-2.59,2.9-14.06,2.9-14.06c-0.03-10.61-1.15-13.33-2.13-15.12c-0.87-1.58-1.82-2.76-2.52-3.55
			c-5.71-5.12-44.88-40.26-45.07-40.43c-0.02-0.01-0.99-0.89-1.02-0.92c-0.39-0.42-0.99-1.02-1.8-1.62
			c-2.94-2.15-5.62-2.06-14.32-2.24c-7.2-0.15-9.24-0.29-11.92,1.21c-1.37,0.77-2.35,1.65-2.98,2.29
			c-7.22,7.1-14.44,14.21-21.66,21.31c-15.79,0-31.57,0-47.36,0c-1.63,0-2.44,0-2.44,0c-1.34,0.42-1.87,0.26-2.1,0
			c-1.91-2.21,11.39-19.89,28.77-30.81c9.13-5.74,17.82-8.62,24.05-10.17c33.79,0.07,49.5-0.22,56.95-0.58
			c0.49-0.02,1.52-0.08,2.94-0.03c10.97,0.35,23.87,9.17,23.87,9.17c6.16,4.69,13.25,10.96,20.17,19.18
			c3.97,4.71,7.25,9.32,9.96,13.58C457.88,289.85,483.21,289.81,498.34,289.81z"/>
		<path class="st3" d="M327.85,287.74c0.44-0.5,3.42-3.72,8.25-3.67c4.29,0.05,7.01,2.66,7.56,3.21
			c18.74,16.68,32.35,29.08,36.21,32.54c0.65,0.58,3.07,2.74,3.67,5.96c0.27,1.47,0.06,2.55-0.02,2.88c-0.48,2.1-1.88,3.42-2.5,3.99
			c-6.34,5.83-37.6,33.52-39.44,35.23c-0.3,0.28-0.65,0.59-1.35,1.2c-2.99,2.64-3.48,2.87-3.9,2.98c-0.57,0.16-1.94,0.37-4.05-1.03
			c-0.47-0.43-38.37-35.25-38.39-35.27c-0.04-0.04-1.48-1.36-1.49-1.37c-1.87-1.72-1.87-1.71-1.9-1.74
			c-1.2-1.13-3.09-2.89-3.36-5.04c-0.34-2.67,1.95-4.89,2.49-5.39L327.85,287.74z"/>
		<path class="st4" d="M423.1,206.77c-53.86-55.54-169.72-64.68-229.92,12.91c-30.88,26.22-47.75,82.44-44,110.6
			c4.96,93.79,70.92,166.08,185.76,158.88c19.52,0.53,76.43-17.16,96.17-50.11l0.38,0c-43.03-0.25-86.06-0.51-129.09-0.76
			c-12.55-2.26-35.89-8.36-56.98-27.04c-30.91-27.39-50.62-75.8-34.62-120.71c10.88-30.53,36.5-57.54,78.31-71.48
			c31.74-7.49,103.34-2.11,127.5-3.8c5.23,0.95,9.08-5.77,6.14-8.82"/>
	</g>
</g>
<g id="Capa_1">
	<path class="st0" d="M1586.64,245.37c23.21-0.13,46.43-0.26,69.64-0.38c0.46-0.08,1.1-0.24,1.78-0.6c4.5-2.43,4.14-10.39,4.1-11.1
		c-0.15-2.58-1.91-5.9-5.43-12.54c-1.85-3.49-4.22-7.6-8.01-11.82c-1.54-1.71-2.17-2.17-2.52-2.41c-4.04-2.75-8.94-1.86-12.71-1.18
		c-5.55,1.01-10.49,3.48-14.13,5.29l0,0c-1.55,1.12-3.92,2.42-6.59,2.1c-3.36-0.4-4.73-3.08-9.89-8.93
		c-1.41-1.6-6.01-6.82-11.62-11.9c-5.28-4.78-7.35-5.72-7.9-8.74c-0.21-1.15-0.09-2.06,2.35-9.16c2.59-7.52,2.88-7.69,3.53-10.16
		c1.35-5.16,2.35-8.98,1.01-12.6c-0.73-1.96-2.09-3.73-11.76-9.07c-10.34-5.72-15.6-8.57-19.56-7.86c-5.62,1-9.68,5.57-12.03,8.2
		c-4.81,5.4-6.17,10.87-11.42,11.93c-0.92,0.19-1.67,0.17-3.19,0.04c-8.59-0.76-15.79-3.13-19.21-4.24
		c-14.51-4.72-15.22-4.47-16.58-6.27c-2.27-3.03-0.95-4.67-3.02-14.39c-1.66-7.82-2.5-11.73-4.93-14.17
		c-3.7-3.71-9.37-3.7-20.72-3.7c-10.12,0.01-15.18,0.01-17.92,2.46c-2.95,2.65-4.43,9.01-7.39,21.73c-1.04,4.49-1.07,5.25-2.02,6.72
		c-2.14,3.33-5.23,4.42-18.14,8.06c-12.86,3.63-14.68,3.93-17.46,3.18c-4.03-1.08-7.13-3.57-10.54-6.32
		c-3.75-3.01-3.88-4.07-8.29-7.84c-4.81-4.11-7.21-6.17-9.86-6.72c-4.93-1.03-9.28,1.86-17.02,7.17
		c-7.7,5.27-11.54,7.91-12.86,10.67c-5.65,11.85,10.57,23.72,5.02,36.04c-0.8,1.78-0.91,1.02-12.1,11.59
		c-12.78,12.08-12.19,12.63-14.62,13.44c-11.44,3.8-19.5-10.28-31.08-6.38c-5.63,1.89-8.72,6.9-11.93,12.1
		c-2.89,4.68-8.94,14.39-5.54,22.18c2.2,5.04,8.7,10.04,15.23,15.06c1.01,0.78,3.57,2.7,4.18,5.83c0.42,2.19-0.29,4.02-0.59,4.81
		c-1.79,4.71-3.26,10.48-6.19,22.03c-2.32,9.17-1.58,11.79-4.57,14.09c-2.34,1.8-4.31,1.35-9.86,1.96
		c-9.24,1.01-15.74,1.72-19.26,5.6c-2.41,2.66-2.28,8.68-1.91,20.61c0.28,9.21,0.46,13.86,2.36,16.04
		c4.87,5.64,16.46,6.18,20.16,6.36c3.87,0.18,8.25-0.11,10.53,2.8c0.54,0.69,0.76,1.34,1.34,4.03c1.17,5.35,1.75,9.52,2.03,11.28
		c0.53,3.35,1.22,5.66,2.6,10.28c2.9,9.73,5.12,12.65,3.49,15.96c-0.76,1.53-1.78,2-4.25,3.7c-3.6,2.47-10.88,7.45-13.72,12.32
		c-4.27,7.32-0.14,17.11,1.62,21.28c2.04,4.82,5.63,13.33,13.1,15.46c5.43,1.54,11.97-0.56,23.86-4.37c3.1-1,3.87-1.38,5.54-1.34
		c5.6,0.12,7.77,4.68,16.8,13.61c8.43,8.34,12.82,10.57,12.9,15.92c0.03,1.7-0.4,2.76-1.14,4.92c-4.64,13.33-6.96,19.99-5.49,25.03
		c1.3,4.47,5.83,7.12,14.9,12.43c8.65,5.07,12.97,7.6,17.81,6.38c2.64-0.66,3.46-1.94,14.45-13.44c7.11-7.45,7.83-8.02,9.3-8.51
		c5.62-1.88,8.18,2.18,20.61,5.32c10.63,2.69,13.65,0.96,17.02,4.54c1.56,1.65,1.73,2.89,4.4,14.28c3.1,13.24,3.45,14.01,4.33,15.04
		c3.99,4.66,10.63,4.9,21.96,5.29c9.69,0.34,14.53,0.51,17.7-2.35c2.61-2.36,3.83-8.55,6.16-20.83c1.62-8.55,1.51-9.73,3.08-11.48
		c3.8-4.25,8.52-1.8,19.77-4.31c12.49-2.79,14.35-7.51,19.38-5.49c1.85,0.74,2.24,1.64,12.38,14.56c3.85,4.9,4.17,5.26,5,5.74
		c6.42,3.72,15.36-1,23.39-5.24c7.79-4.11,14.72-7.76,15.68-14.17c0.24-1.61-0.02-2.54-1.9-8.51c-5.54-17.54-6.19-18.59-5.71-21.06
		c0.68-3.49,2.39-3.48,13.22-14.11c11.03-10.84,10.96-12.52,14.56-13.22c4.02-0.77,9.66,1.22,20.94,5.21
		c4.67,1.65,4.93,1.97,6.38,1.96c8.26-0.04,14.18-10.29,17.81-16.58c3.43-5.94,6.09-10.71,4.53-16.17
		c-0.96-3.35-3.14-5.62-4.64-6.91c-23.27,0.07-46.55,0.14-69.82,0.21"/>
	<path class="st1" d="M1608.59,355.25c-2.09,14.09-7.8,38.9-25.84,63.04c-28.02,37.51-73.28,56.93-113.88,56.14
		c-68.58-1.34-146.31-59.73-146.31-146.31c0-84.95,74.62-145.67,146.31-146.31c45.15-0.4,90.52,23.03,117.54,62.55
		C1619.86,293.28,1610.55,345.38,1608.59,355.25z"/>
	<path class="st2" d="M1603.38,300.48c0.53,0,38.99,0,42.62,0c0.05,0,2.19,0,2.24,0c0.6,0,1.19,0,1.79,0
		c9.93,0,18.59,3.02,18.59,3.02c6.25,2.18,11.21,5.29,14.9,8.18c0.19,0.28,0.47,0.7,0.78,1.23c2.37,4.04,2.91,8.14,3.02,12.54
		c0.22,8.29,0.33,12.44-1.46,15.68c-2.86,5.2-8.06,7.26-14.34,9.63c-10.96,4.15-20.31,4.48-21.51,4.48c-34.61,0-69.22,0-103.83,0
		c0,0,4.18,0-2.02,0c-1.08,0-1.14,0-1.18,0c-2.29,0.03-4.13,2.71-4.48,3.19c-3.35,4.6-16.8,17.08-25.53,22.53
		c-2.66,1.66-6.87,3.9-12.77,5.53c-11.01,0.07-35.03,0.22-36.64,0.26c-1.32,0.03-2,0.05-2,0.05s-0.42,0.01-1.35,0.03
		c-8.08,0.19-18.54-6.94-18.54-6.94c-12.04-8.21-21.82-21.84-23.8-24.64c0.74,0,34.41-0.15,34.45-0.15c0.01,0,1.97-0.01,2.01-0.01
		c0,0,1.8-0.01,1.85-0.01c1.1,0,6.15,4.65,19.26,19.15c0.32,0,12.22,0.04,12.27,0.04c0.03,0,1.75,0.01,1.79,0.01
		c0.02,0,1.22,0,1.23,0c0.57-0.5,37.99-33.48,38-33.49c0,0,0.95-0.84,0.95-0.84c0.6-0.6,0.69-0.61,0.69-0.61
		c2.15-1.9,2.12-10.3,2.12-10.31c-0.02-7.78-0.84-9.77-1.56-11.09c-0.64-1.16-1.33-2.03-1.85-2.6c-4.18-3.75-32.9-29.52-33.04-29.64
		c-0.01-0.01-0.72-0.65-0.75-0.67c-0.28-0.31-0.72-0.75-1.32-1.19c-2.15-1.58-4.12-1.51-10.5-1.64c-5.28-0.11-6.77-0.21-8.74,0.89
		c-1,0.56-1.72,1.21-2.18,1.68c-5.29,5.21-10.58,10.42-15.88,15.62c-11.57,0-23.15,0-34.72,0c-1.19,0-1.79,0-1.79,0
		c-0.98,0.31-1.37,0.19-1.54,0c-1.4-1.62,8.35-14.58,21.09-22.59c6.69-4.2,13.06-6.32,17.64-7.46c24.77,0.05,36.29-0.16,41.75-0.43
		c0.36-0.02,1.11-0.06,2.16-0.02c8.04,0.26,17.5,6.72,17.5,6.72c4.52,3.43,9.71,8.03,14.79,14.07c2.91,3.46,5.32,6.83,7.3,9.96
		C1573.72,300.51,1592.29,300.48,1603.38,300.48z"/>
	<path class="st3" d="M1478.39,298.97c0.33-0.36,2.51-2.73,6.05-2.69c3.15,0.04,5.14,1.95,5.54,2.35
		c13.74,12.23,23.72,21.32,26.55,23.86c0.48,0.43,2.25,2.01,2.69,4.37c0.2,1.08,0.04,1.87-0.01,2.11c-0.35,1.54-1.38,2.51-1.83,2.93
		c-4.65,4.28-27.57,24.58-28.92,25.83c-0.22,0.21-0.48,0.43-0.99,0.88c-2.19,1.94-2.55,2.1-2.86,2.18
		c-0.41,0.11-1.43,0.27-2.97-0.76c-0.34-0.32-28.13-25.84-28.15-25.86c-0.03-0.03-1.08-0.99-1.09-1.01
		c-1.37-1.26-1.37-1.26-1.39-1.28c-0.88-0.83-2.27-2.12-2.46-3.7c-0.25-1.95,1.43-3.58,1.82-3.95L1478.39,298.97z"/>
	<path class="st4" d="M1548.22,239.61c-39.49-40.72-124.43-47.42-168.57,9.47c-22.64,19.22-35.01,60.44-32.26,81.09
		c3.64,68.76,52,121.76,136.19,116.49c14.31,0.39,56.03-12.58,70.51-36.74l0.28,0c-31.55-0.19-63.1-0.37-94.64-0.56
		c-9.2-1.66-26.31-6.13-41.78-19.82c-22.67-20.08-37.12-55.57-25.38-88.5c7.98-22.38,26.76-42.19,57.41-52.41
		c23.27-5.49,75.76-1.54,93.48-2.79c3.84,0.69,6.66-4.23,4.5-6.47"/>
	<text transform="matrix(1 0 0 1 1738.9265 347.8449)" style="fill:#970B0E; font-family:'Philosopher'; font-size:87.1774px;">UNIELECTRICOS</text>
</g>
</svg>
