<svg id="New_Layer" data-name="New Layer" xmlns="http://www.w3.org/2000/svg" viewBox="0 0 367.55 365.86"><defs><style>.cls-1{fill:#e5252a;fill-rule:evenodd;}</style></defs><path class="cls-1" d="M945.5-722.5c-55.6,4.1-107.2,34.6-138.5,82-6.1,9.3-17,30.2-17,32.8,0,.7,1.6,3.4,3.5,5.9l3.5,4.5,1-2.8c21.9-57.4,71.8-98.8,133-110.1,7.1-1.3,14.7-1.7,30-1.7,18.6,0,21.7.3,33.4,2.8,36.1,7.7,65.5,24.1,90.8,50.3,23.8,24.8,38.5,53.5,45.3,88.3,2.3,11.5,3.1,38.2,1.6,50.6a175.84,175.84,0,0,1-76.5,124.6c-24.2,16.2-48.1,24.4-82.4,28.1-2.2.2-2.2.3,1.5,5.4,4.4,6,3.4,6,23.8,1.6a179.36,179.36,0,0,0,93.5-51.9c10.9-11.3,16.9-18.9,23.9-30.1a184.4,184.4,0,0,0,7.5-181.3c-8.6-16.7-17.5-29-31.4-43.3-28.7-29.7-61.6-47-102.1-53.6A196.42,196.42,0,0,0,945.5-722.5Z" transform="translate(-776.11 722.94)"/><path class="cls-1" d="M1027.5-629.6c-22.6,3.6-33.8,12.1-52.6,40.1-16.6,24.8-27.3,34.3-43,38.3l-5.3,1.4,3.9,1.4A47.91,47.91,0,0,0,942-547c9.4,0,13.2-1.9,22.3-10.9,7.3-7.2,11.5-9,17.3-7.5,7.5,2.1,8,12,1.3,23.8-9.4,16.3-30.7,26.7-53.4,25.9-5.1-.2-9.1,0-8.8.4s3.7,2.6,7.6,4.8c8.9,4.9,19.5,7.4,28.6,6.8,12.2-.9,17.8-5.4,31.1-25.3,12-17.8,15.2-20.5,24-20.5a9.29,9.29,0,0,1,7.2,2.9c2.9,2.6,3.3,3.5,3.2,7.8-.3,10.8-7.4,21.9-17.4,27.1l-4.5,2.4,6.4-.5c8.7-.7,19.2-6,27.7-13.9,7.1-6.7,10.2-11.3,13.6-20.4,2.1-5.5,2.3-7.3,2-27.4-.2-23.1.6-29.6,4.4-37.1,3.5-6.9,8.3-10.5,16.9-12.4l3-.7-3.7-1.9C1061.8-628.2,1038.9-631.4,1027.5-629.6Zm19.5,8c0,1.6-4.2,4.1-6.8,4.1-3,0-5.8-1.5-6.6-3.5-.4-1.3.6-1.5,6.4-1.5C1043.9-622.5,1047-622.1,1047-621.6Z" transform="translate(-776.11 722.94)"/><path class="cls-1" d="M968.5-600c-9.2,2-15,5.2-23,12.6s-13.9,10.9-18.5,10.9c-1.6,0-3,.4-3,1,0,1.5,8.8,1.2,15.5-.5a60.41,60.41,0,0,0,25-13.7c5.3-4.9,11.6-12,10.3-11.7C974.6-601.4,971.8-600.7,968.5-600Z" transform="translate(-776.11 722.94)"/><path class="cls-1" d="M960-579.4c-5,4.4-14.6,9.5-21,11.3-9.9,2.7-15.5,2.9-29,1-16.8-2.3-22-1.3-29.1,5.3-4.7,4.4-6.1,7.2-7.4,14.5-.4,2.4-.2,3.8.5,3.8a1.1,1.1,0,0,0,1-1.1c0-2.3,4.3-7,8.3-9.1,3.7-1.8,4.9-2,11.7-1.2,13.8,1.6,26.8,1.1,34.5-1.5,13.7-4.5,24.4-11.8,31.3-21.5,1.8-2.5,3.2-4.6,3-4.6A42.42,42.42,0,0,0,960-579.4Z" transform="translate(-776.11 722.94)"/><path class="cls-1" d="M791.1-556.9a11,11,0,0,0-2.1,7c0,5.8-1.5,9.4-3.9,9.4-3,0-4.4-3.6-3.9-9.6.4-4.6.2-5.5-1.4-6-2.6-.8-3-.2-3.6,5.4-.9,9.5,4.8,17.3,11.3,15.6,4.1-1,5.8-4,6.3-10.7s1.4-8.7,4.3-8.7c2.7,0,4.2,3.6,3.6,8.6-.4,4.1.3,5.4,3.3,5.4,1.3,0,2-7.5,1-11-1.5-5.2-4.7-8-9.1-8C794-559.5,792.7-558.9,791.1-556.9Z" transform="translate(-776.11 722.94)"/><path class="cls-1" d="M898.2-536.4c-5.4.9-14.5,5-15.8,7.1-.5.8-.2.9,1.2.3,1-.4,5.7-1,10.4-1.2,8-.4,9.1-.2,18,3.3,8.6,3.4,10.4,3.8,19,3.8,9,0,21.3-2.4,22.5-4.5.3-.4-1.2-.3-3.2.3-5.5,1.5-11.8.4-20.8-3.5C916.7-536.4,907.7-538,898.2-536.4Z" transform="translate(-776.11 722.94)"/><path class="cls-1" d="M875.3-520.5c-5.3,2.4-5.5,3.4-.5,2.5s7.4.2,15.6,7c12,9.8,19.8,12.6,35.4,12.4,8.6,0,8.7-.1,4.9-1.4-4.4-1.6-7.6-3.8-17.2-11.7-10.3-8.3-16.1-10.8-26-10.8C881.8-522.5,878.3-521.9,875.3-520.5Z" transform="translate(-776.11 722.94)"/><path class="cls-1" d="M801.6-517.5a14.87,14.87,0,0,0-8.7,21c4.9,9.3,18.9,9.8,25.2.9,5.1-7.3,2.9-16.7-5.1-20.7C808.3-518.6,806.3-518.9,801.6-517.5Zm12.2,7.2c2.4,2.3,3,7.5,1.2,10.9-2.6,4.8-11.8,6.4-16.4,2.8-2-1.6-2.6-2.9-2.6-5.8C796-511.6,807.1-516.5,813.8-510.3Z" transform="translate(-776.11 722.94)"/><path class="cls-1" d="M1029.1-511.5c-12.4,8.3-23.1,10.8-36.3,8.5-6.2-1-9.4-1.2-12.1-.4-4.6,1.3-5.7,2.9-1.9,2.9a10,10,0,0,1,5.3,1.9c4.8,4-1.2,8.3-15.7,11.2-10.3,2-17.5,5.3-22,10-3.3,3.5-2.6,3.6,4.6.7,4.6-1.7,8.6-2.2,23.5-2.8,19.8-.8,24.8-1.9,35.3-8.2,7.1-4.3,19.9-16.8,24-23.6,1.7-2.8,3.1-5.2,2.9-5.2S1033.2-514.2,1029.1-511.5Z" transform="translate(-776.11 722.94)"/><path class="cls-1" d="M864.4-509.1c-1.7.8-5.5,4.1-8.4,7.4s-6.4,6.6-7.9,7.2c-2.5,1.2-2.5,1.3-.6,2.1,6.6,2.6,13.7,0,20.8-7.6,3.2-3.5,6.7-6.1,9.2-7l4-1.3-2.8-1.1C874.9-510.9,868.2-510.7,864.4-509.1Z" transform="translate(-776.11 722.94)"/><path class="cls-1" d="M822.5-470.9c-6,4-11.1,8-11.3,8.7a2.68,2.68,0,0,0,1.1,2.5c1,.8,2.4.4,5.8-1.8,2.4-1.7,4.9-3,5.4-3s2.2,2,3.7,4.5,3.2,4.5,3.8,4.5c2.2,0,2-3-.4-6.9a21.33,21.33,0,0,1-2.6-5c0-1,4.4-4.1,5.8-4.1.5,0,2.6,2.5,4.6,5.5,3.8,5.8,4.7,6.3,6.4,4.2.8-1-.2-3.2-4-9-2.8-4.2-5.6-7.7-6.2-7.6S828.6-475,822.5-470.9Z" transform="translate(-776.11 722.94)"/><path class="cls-1" d="M953-471.6a25.27,25.27,0,0,0-15.5,13.1,33.54,33.54,0,0,1-3.9,5.9l-2.1,2.3,2.5-.7c5.1-1.5,10.6-5.5,14.5-10.6a47,47,0,0,1,7.9-8.1c3.5-2.5,3.6-2.8,1.5-2.7A21.76,21.76,0,0,0,953-471.6Z" transform="translate(-776.11 722.94)"/><path class="cls-1" d="M854.2-447.3c-.9.9-.5,1.9,1.9,4.4,1.7,1.8,3,3.6,2.8,4.1s-4.3,4.6-9,9.1c-8.2,7.6-8.6,8.2-7.2,10.2s1.7,1.8,10.9-6.6l9.5-8.7,3.4,3.3c3.1,3,3.7,3.2,5,1.9s.6-2.5-6.6-10.2c-4.4-4.8-8.4-8.7-8.8-8.7A3.82,3.82,0,0,0,854.2-447.3Z" transform="translate(-776.11 722.94)"/><path class="cls-1" d="M878.2-406.3c-7,8.6-8.9,11.5-8,12.5a3.64,3.64,0,0,0,2.3,1.3c.7,0,5.4-5.1,10.4-11.3,8.2-10.1,9-11.3,7.4-12.5a7.42,7.42,0,0,0-2.4-1.2C887.5-417.5,883.1-412.5,878.2-406.3Z" transform="translate(-776.11 722.94)"/><path class="cls-1" d="M907.5-396.1c-6.9,3-10.9,11.8-8.6,18.9a14.74,14.74,0,0,0,17.5,9.3c2.3-.6,2.5-.9,1.3-2.7a2.9,2.9,0,0,0-3.6-1.4c-5,1.3-11.1-3.8-11.1-9,0-5.6,5.9-11.5,11.5-11.5,3.1,0,7.5,4.1,7.5,7,0,1.5.6,2,2.5,2,5.4,0,1.7-8.8-5-12C914.7-397.8,911.7-398,907.5-396.1Z" transform="translate(-776.11 722.94)"/></svg>